{"title":"Captain America the Winter Soldier(2014)MP-4[Dascubadude]","uid":12337777,"size":1659726934,"categoryP":"video","categoryS":"movies","magnet":"?xt=urn:btih:f8ed97a59d299d7ac3d7ab00575eddbd3460e446&amp;dn=Captain+America+the+Winter+Soldier%282014%29MP-4%5BDascubadude%5D&amp;tr=udp%3A%2F%2Ftracker.openbittorrent.com%3A80&amp;tr=udp%3A%2F%2Fopen.demonii.com%3A1337&amp;tr=udp%3A%2F%2Ftracker.coppersurfer.tk%3A6969&amp;tr=udp%3A%2F%2Fexodus.desync.com%3A6969","seeders":1,"leechers":0,"uploader":"dascuba","files":1,"time":1441262886,"description":"Captain America: The Winter Soldier (2014)\nPG-13  |  136 min  |  Action, Adventure, Sci-Fi  |  4 April 2014 (USA)\n7.8 Your rating:   -/10   Ratings: 7.8/10 from 402,157 users   Metascore: 70/100 \nReviews: 711 user | 554 critic | 44 from Metacritic.com\nAs Steve Rogers struggles to embrace his role in the modern world, he teams up with another super soldier, the black widow, to battle a new threat from old history: an assassin known as the Winter Soldier.\n\nDirectors: Anthony Russo, Joe Russo\nWriters: Christopher Markus (screenplay), Stephen McFeely (screenplay), 2 more credits Â»\nStars: Chris Evans, Samuel L. Jackson, Scarlett Johansson\n\nGeneral\nComplete name                            : C:Captain  America the Winter SoldierCAPTAIN_AMERICA_Title1.mp4\nFormat                                   : MPEG-4\nFormat profile                           : Base Media\nCodec ID                                 : isom\nFile size                                : 1.55 GiB\nDuration                                 : 2h 15mn\nOverall bit rate mode                    : Constant\nOverall bit rate                         : 1 630 Kbps\nMovie name                               : CAPTAIN_AMERICA\nGenre                                    : Action\nWriting application                      : Lavf54.6.100\n\nVideo\nID                                       : 1\nFormat                                   : MPEG-4 Visual\nFormat settings, BVOP                    : No\nFormat settings, QPel                    : No\nFormat settings, GMC                     : No warppoints\nFormat settings, Matrix                  : Default (H.263)\nCodec ID                                 : 20\nDuration                                 : 2h 15mn\nBit rate mode                            : Constant\nBit rate                                 : 1 496 Kbps\nWidth                                    : 720 pixels\nHeight                                   : 404 pixels\nDisplay aspect ratio                     : 16:9\nFrame rate mode                          : Constant\nFrame rate                               : 29.970 fps\nColor space                              : YUV\nChroma subsampling                       : 4:2:0\nBit depth                                : 8 bits\nScan type                                : Progressive\nCompression mode                         : Lossy\nBits/(Pixel*Frame)                       : 0.172\nStream size                              : 1.42 GiB (92%)\nWriting library                          : Lavc54.23.100\n\nAudio\nID                                       : 2\nFormat                                   : MPEG Audio\nFormat version                           : Version 1\nFormat profile                           : Layer 3\nCodec ID                                 : 6B\nDuration                                 : 2h 15mn\nBit rate mode                            : Constant\nBit rate                                 : 128 Kbps\nChannel(s)                               : 2 channels\nSampling rate                            : 44.1 KHz\nCompression mode                         : Lossy\nStream size                              : 124 MiB (8%)\nWriting library                          : LAME3.99.5","torrent":{"xt":"urn:btih:f8ed97a59d299d7ac3d7ab00575eddbd3460e446","amp;dn":"Captain+America+the+Winter+Soldier%282014%29MP-4%5BDascubadude%5D","amp;tr":["udp%3A%2F%2Ftracker.openbittorrent.com%3A80","udp%3A%2F%2Fopen.demonii.com%3A1337","udp%3A%2F%2Ftracker.coppersurfer.tk%3A6969","udp%3A%2F%2Fexodus.desync.com%3A6969"],"infoHash":"f8ed97a59d299d7ac3d7ab00575eddbd3460e446","infoHashBuffer":{"type":"Buffer","data":[248,237,151,165,157,41,157,122,195,215,171,0,87,94,221,189,52,96,228,70]},"announce":[],"urlList":[]}}